<?xml version="1.0" encoding="utf-8"?>
<!-- Generator: Adobe Illustrator 23.1.0, SVG Export Plug-In . SVG Version: 6.00 Build 0)  -->
<svg version="1.1" id="Layer_1" xmlns="http://www.w3.org/2000/svg" xmlns:xlink="http://www.w3.org/1999/xlink" x="0px" y="0px"
	 viewBox="0 0 252 144" style="enable-background:new 0 0 252 144;" xml:space="preserve">
<style type="text/css">
	.st0{fill:none;stroke:#000000;stroke-miterlimit:10;}
	.st1{fill:none;stroke:#000000;stroke-width:0.9826;stroke-miterlimit:10;}
	.st2{fill:none;stroke:#000000;stroke-width:0.8137;stroke-miterlimit:10;}
	.st3{fill:none;stroke:#000000;stroke-width:0.7428;stroke-miterlimit:10;}
	.st4{fill:none;stroke:#000000;stroke-width:0.7958;stroke-miterlimit:10;}
</style>
<polyline class="st0" points="112.5,71.5 114.5,88.5 121.5,88.5 121.5,78.5 127.36,78.54 127.36,88.5 134.36,88.5 136.36,71.54 "/>
<path class="st1" d="M136.04,71.5h-23.09c-1.35,0-2.46-1.11-2.46-2.46v-0.09c0-1.35,1.11-2.46,2.46-2.46h23.09
	c1.35,0,2.46,1.11,2.46,2.46v0.09C138.5,70.39,137.39,71.5,136.04,71.5z"/>
<path class="st2" d="M134.5,66.5h-20c-1.1,0-2-0.9-2-2l0,0c0-1.1,0.9-2,2-2h20c1.1,0,2,0.9,2,2l0,0
	C136.5,65.6,135.6,66.5,134.5,66.5z"/>
<path class="st3" d="M132.64,62.5h-16.29c-1.02,0-1.86-0.84-1.86-1.86v-0.29c0-1.02,0.84-1.86,1.86-1.86h16.29
	c1.02,0,1.86,0.84,1.86,1.86v0.29C134.5,61.66,133.66,62.5,132.64,62.5z"/>
<path class="st4" d="M117,58.5c0.47-4,4.77-1.49,5.77-2.6c1.26-1.4-0.67-2.54-1.53-3.69c-0.07-0.1,0.07-0.21,0.17-0.13
	c1.51,1.34,5.5,3.25,7.13,3.3C132.5,55.5,132,58.5,132,58.5"/>
</svg>
