<?xml version="1.0" encoding="utf-8"?>
<!-- Generator: Adobe Illustrator 23.1.0, SVG Export Plug-In . SVG Version: 6.00 Build 0)  -->
<svg version="1.1" id="Layer_1" xmlns="http://www.w3.org/2000/svg" xmlns:xlink="http://www.w3.org/1999/xlink" x="0px" y="0px"
	 viewBox="0 0 57.31 73.98" style="enable-background:new 0 0 57.31 73.98;" xml:space="preserve">
<style type="text/css">
	.st0{fill:none;stroke:#000000;stroke-width:1.9754;stroke-miterlimit:10;}
</style>
<polyline class="st0" points="4.96,39.41 8.91,72.99 22.74,72.99 22.74,53.23 34.31,53.31 34.31,72.99 48.14,72.99 52.09,39.48 "/>
<path class="st0" d="M51.46,39.41H5.85c-2.67,0-4.86-2.19-4.86-4.86v-0.18c0-2.67,2.19-4.86,4.86-4.86h45.61
	c2.67,0,4.86,2.19,4.86,4.86v0.18C56.32,37.21,54.13,39.41,51.46,39.41z"/>
<path class="st0" d="M48.42,29.53H8.91c-2.17,0-3.95-1.78-3.95-3.95l0,0c0-2.17,1.78-3.95,3.95-3.95h39.51
	c2.17,0,3.95,1.78,3.95,3.95l0,0C52.37,27.75,50.59,29.53,48.42,29.53z"/>
<path class="st0" d="M44.74,21.63H12.56c-2.01,0-3.67-1.66-3.67-3.67v-0.57c0-2.01,1.66-3.67,3.67-3.67h32.18
	c2.01,0,3.67,1.66,3.67,3.67v0.57C48.42,19.97,46.76,21.63,44.74,21.63z"/>
<path class="st0" d="M13.85,13.72c0.93-7.9,9.42-2.94,11.4-5.14c2.49-2.77-1.32-5.02-3.02-7.29c-0.14-0.2,0.14-0.41,0.34-0.26
	c2.98,2.65,10.86,6.42,14.08,6.52c7.82,0.24,6.84,6.16,6.84,6.16"/>
</svg>
