<?xml version="1.0" encoding="utf-8"?>
<!-- Generator: Adobe Illustrator 23.1.0, SVG Export Plug-In . SVG Version: 6.00 Build 0)  -->
<svg version="1.1" id="Layer_1" xmlns="http://www.w3.org/2000/svg" xmlns:xlink="http://www.w3.org/1999/xlink" x="0px" y="0px"
	 viewBox="0 0 29.01 37.45" style="enable-background:new 0 0 29.01 37.45;" xml:space="preserve">
<style type="text/css">
	.st0{fill:none;stroke:#000000;stroke-miterlimit:10;}
</style>
<polyline class="st0" points="2.51,19.95 4.51,36.95 11.51,36.95 11.51,26.95 17.37,26.99 17.37,36.95 24.37,36.95 26.37,19.99 "/>
<path class="st0" d="M26.05,19.95H2.96c-1.35,0-2.46-1.11-2.46-2.46V17.4c0-1.35,1.11-2.46,2.46-2.46h23.09
	c1.35,0,2.46,1.11,2.46,2.46v0.09C28.51,18.84,27.4,19.95,26.05,19.95z"/>
<path class="st0" d="M24.51,14.95h-20c-1.1,0-2-0.9-2-2l0,0c0-1.1,0.9-2,2-2h20c1.1,0,2,0.9,2,2l0,0
	C26.51,14.05,25.61,14.95,24.51,14.95z"/>
<path class="st0" d="M22.65,10.95H6.36c-1.02,0-1.86-0.84-1.86-1.86V8.8c0-1.02,0.84-1.86,1.86-1.86h16.29
	c1.02,0,1.86,0.84,1.86,1.86v0.29C24.51,10.11,23.67,10.95,22.65,10.95z"/>
<path class="st0" d="M7.01,6.95c0.47-4,4.77-1.49,5.77-2.6c1.26-1.4-0.67-2.54-1.53-3.69c-0.07-0.1,0.07-0.21,0.17-0.13
	c1.51,1.34,5.5,3.25,7.13,3.3c3.96,0.12,3.46,3.12,3.46,3.12"/>
</svg>
